<?xml version="1.0" standalone="no"?>
<!DOCTYPE svg PUBLIC "-//W3C//DTD SVG 20010904//EN"
 "http://www.w3.org/TR/2001/REC-SVG-20010904/DTD/svg10.dtd">
<svg version="1.0" xmlns="http://www.w3.org/2000/svg"
 width="146.000000pt" height="153.000000pt" viewBox="0 0 146.000000 153.000000"
 preserveAspectRatio="xMidYMid meet">

<g transform="translate(0.000000,153.000000) scale(0.100000,-0.100000)"
fill="#000000" stroke="none">
<path d="M0 765 l0 -765 730 0 730 0 0 765 0 765 -730 0 -730 0 0 -765z m722
530 l-3 -126 -270 3 c-148 2 -269 0 -269 -5 0 -4 22 -51 49 -105 27 -53 58
-130 69 -171 12 -40 24 -76 26 -79 9 -9 -34 -40 -65 -47 -16 -4 -31 -10 -34
-15 -6 -9 45 -141 62 -162 21 -25 103 -202 99 -213 -2 -6 6 -11 18 -12 11 0
15 1 8 4 -15 6 14 30 68 59 25 13 30 19 18 22 -9 2 -30 -4 -47 -12 -34 -18
-66 -22 -41 -6 13 8 12 10 -2 10 -23 0 -23 16 -2 28 20 11 1 27 -22 18 -9 -4
-19 3 -26 19 -10 21 -8 28 8 41 18 15 18 15 -8 11 -21 -3 -29 2 -38 22 -10 21
-9 27 6 38 18 13 10 18 -22 14 -6 -1 -20 20 -30 46 -10 27 -20 50 -22 53 -3 8
53 40 70 40 7 0 23 -17 35 -38 19 -32 22 -34 23 -14 0 13 5 22 11 20 5 -2 79
-135 163 -296 84 -161 155 -290 157 -287 3 2 2 41 -2 87 -4 46 -4 87 1 93 12
15 16 140 5 138 -9 -1 -10 69 -2 250 l2 57 -166 0 -167 0 -32 80 c-33 82 -47
101 -36 53 5 -28 5 -28 -9 2 -17 36 -21 69 -5 45 6 -10 10 -11 10 -2 0 8 19
12 63 12 l62 0 25 -43 c14 -23 27 -46 29 -52 8 -18 30 -36 67 -51 32 -14 38
-14 53 0 10 9 27 16 40 16 24 0 35 19 28 47 -3 15 -6 14 -15 -7 -8 -19 -11
-21 -11 -7 -1 10 -6 15 -11 12 -6 -4 -8 -11 -5 -16 4 -5 1 -9 -4 -9 -6 0 -11
7 -11 17 0 9 -3 13 -7 9 -5 -4 -8 -17 -8 -29 0 -13 -7 -23 -19 -25 -16 -4 -18
0 -12 33 6 28 4 36 -6 33 -7 -3 -13 -12 -13 -21 0 -31 -13 -27 -19 6 -4 19
-15 42 -26 52 -11 10 -20 22 -20 26 0 5 51 10 113 11 l112 3 0 95 0 95 180 3
c98 1 192 -2 207 -7 17 -6 30 -6 33 0 4 5 26 9 51 9 57 0 57 -14 4 -120 -38
-76 -42 -80 -68 -74 -37 9 -38 11 -18 33 16 18 16 18 -9 13 -19 -3 -24 -9 -20
-22 8 -25 -29 -30 -206 -30 l-149 0 0 -40 c0 -22 -4 -40 -9 -40 -12 0 -21 -39
-11 -45 5 -3 14 3 20 12 9 15 10 13 5 -10 -4 -21 -2 -28 7 -24 7 2 12 16 11
31 -1 14 2 24 8 21 16 -11 10 -43 -12 -59 -42 -29 -12 -36 147 -36 l155 0 -6
-22 c-4 -13 -47 -97 -95 -188 -48 -91 -115 -217 -149 -281 -60 -114 -74 -163
-48 -172 6 -2 9 -7 6 -11 -8 -9 -146 58 -219 106 -30 20 -73 55 -95 78 -22 23
-55 55 -72 72 -18 17 -45 51 -59 76 -21 36 -24 46 -13 54 11 8 10 9 -3 4 -33
-10 -114 172 -150 339 -19 92 -17 360 5 476 l18 95 62 -13 c34 -7 96 -16 137
-19 41 -3 82 -8 90 -10 20 -7 260 37 260 48 0 4 3 8 8 8 4 0 6 -56 4 -125z
m173 95 c3 -5 -1 -10 -10 -10 -9 0 -13 5 -10 10 3 6 8 10 10 10 2 0 7 -4 10
-10z m8 -57 c-7 -2 -19 -2 -25 0 -7 3 -2 5 12 5 14 0 19 -2 13 -5z m110 -5
c-33 -11 -41 -22 -24 -32 13 -8 72 14 65 25 -9 15 13 10 26 -6 10 -12 9 -15
-8 -15 -11 0 -28 -3 -37 -6 -15 -6 -15 -8 0 -24 11 -12 13 -20 6 -25 -6 -3
-11 1 -11 9 0 23 -45 31 -71 12 -25 -17 -19 -22 36 -29 17 -3 10 -4 -15 -3
-33 1 -46 5 -48 18 -2 9 5 19 17 23 12 3 21 15 21 26 0 19 30 38 60 37 8 0 0
-5 -17 -10z m-195 -9 c-10 -5 -15 -16 -12 -24 4 -9 0 -15 -10 -15 -13 0 -14 4
-4 25 6 14 18 25 27 25 14 -1 14 -2 -1 -11z m67 -40 c21 -21 -10 -44 -64 -47
-28 -2 -51 1 -51 5 0 5 19 7 43 5 53 -4 82 19 47 38 -11 6 -25 8 -30 5 -6 -3
-10 -1 -10 5 0 14 48 5 65 -11z m442 -241 c-2 -18 -4 -4 -4 32 0 36 2 50 4 33
2 -18 2 -48 0 -65z m-952 13 c-8 -13 -75 -15 -75 -2 0 5 16 7 35 4 24 -3 35
-1 35 8 0 7 3 10 6 6 3 -3 3 -10 -1 -16z m949 -133 c4 -17 2 -28 -4 -28 -5 0
-10 14 -10 32 0 36 4 35 14 -4z m-524 -49 c0 -10 -4 -19 -8 -19 -4 0 -8 11 -8
24 0 14 4 22 8 20 4 -3 8 -14 8 -25z m100 2 c0 -4 -18 -5 -40 -3 -22 2 -40 7
-40 11 0 4 18 5 40 3 22 -2 40 -7 40 -11z m-35 -22 c4 -6 14 -8 24 -4 12 5 13
4 4 -6 -9 -9 -16 -9 -25 -2 -7 6 -22 13 -33 16 -19 4 -18 5 2 6 12 0 25 -4 28
-10z m450 1 c3 -5 1 -10 -4 -10 -6 0 -11 5 -11 10 0 6 2 10 4 10 3 0 8 -4 11
-10z m-108 -72 c20 -16 16 -28 -13 -38 -14 -6 -28 -19 -31 -30 -3 -11 -10 -20
-15 -20 -6 0 -3 11 6 25 9 14 13 25 9 26 -5 0 3 5 17 10 24 10 24 11 6 25 -23
17 -30 11 -46 -39 -12 -38 -38 -48 -48 -19 -2 7 2 10 10 7 10 -4 18 7 27 35
11 39 14 41 39 35 15 -4 33 -11 39 -17z m-46 -118 c10 -6 19 -21 19 -33 0 -21
-1 -21 -13 3 -10 19 -20 24 -39 22 -15 -1 -29 2 -33 8 -8 13 40 13 66 0z m-31
-45 c0 -5 -72 -189 -77 -198 -9 -15 -43 14 -43 38 0 14 -4 25 -10 25 -5 0 -10
5 -10 10 0 7 6 7 19 0 35 -18 48 -11 70 41 25 61 26 75 6 83 -30 11 -16 25 15
15 17 -6 30 -12 30 -14z m73 -82 c-10 -26 -52 -93 -59 -93 -4 0 0 10 8 23 8
12 23 37 32 55 18 34 30 44 19 15z m-496 -150 c-2 -16 -4 -5 -4 22 0 28 2 40
4 28 2 -13 2 -35 0 -50z m433 43 c0 -2 -8 -10 -17 -17 -16 -13 -17 -12 -4 4
13 16 21 21 21 13z m-80 -90 c0 -2 -8 -10 -17 -17 -16 -13 -17 -12 -4 4 13 16
21 21 21 13z m-70 -70 c0 -2 -8 -10 -17 -17 -16 -13 -17 -12 -4 4 13 16 21 21
21 13z m-42 -42 c-1 -5 -9 -9 -16 -10 -10 -2 -11 1 -1 12 12 14 24 13 17 -2z
m-98 -58 c0 -2 -7 -7 -16 -10 -8 -3 -12 -2 -9 4 6 10 25 14 25 6z"/>
<path d="M568 1353 c7 -3 16 -2 19 1 4 3 -2 6 -13 5 -11 0 -14 -3 -6 -6z"/>
<path d="M583 1335 c-34 -14 -40 -29 -23 -55 6 -10 26 -15 60 -15 27 0 50 -3
50 -7 0 -14 -53 -21 -71 -9 -10 6 -26 11 -34 11 -24 0 -17 -20 11 -30 43 -17
83 -12 109 14 20 20 23 29 15 55 -6 21 -5 31 3 34 7 3 3 5 -8 4 -11 0 -33 3
-50 6 -18 4 -43 1 -62 -8z m73 -20 c16 -13 17 -16 4 -25 -8 -5 -27 -10 -42
-10 -21 0 -28 5 -28 19 0 31 35 40 66 16z"/>
<path d="M420 1319 l-35 -20 33 4 c32 4 32 3 32 -40 0 -32 4 -43 15 -43 15 0
17 11 18 85 1 37 -16 41 -63 14z"/>
<path d="M1090 1119 c0 -6 4 -18 10 -28 7 -15 4 -21 -17 -30 -20 -9 -23 -15
-14 -24 25 -25 68 25 57 66 -6 26 -36 39 -36 16z"/>
<path d="M177 1067 c-14 -54 36 -297 62 -297 8 0 -27 216 -46 290 l-9 35 -7
-28z m10 -49 c-3 -7 -5 -2 -5 12 0 14 2 19 5 13 2 -7 2 -19 0 -25z"/>
<path d="M230 614 c0 -17 23 -44 32 -38 8 5 9 1 4 -11 -5 -15 -4 -16 8 -6 12
10 10 16 -10 36 -25 25 -34 30 -34 19z"/>
<path d="M280 525 c0 -8 5 -15 10 -15 6 0 10 7 10 15 0 8 -4 15 -10 15 -5 0
-10 -7 -10 -15z"/>
<path d="M300 461 c0 -5 7 -14 15 -21 16 -14 18 -10 9 14 -6 17 -24 22 -24 7z"/>
<path d="M711 313 c-1 -16 5 -23 17 -23 10 0 13 3 6 8 -6 4 -14 14 -17 22 -4
10 -6 8 -6 -7z"/>
<path d="M1022 456 c1 -10 8 -17 13 -17 15 1 12 24 -3 29 -9 3 -13 -2 -10 -12z"/>
</g>
</svg>
